<svg width="250" height="209" viewBox="0 0 250 209" fill="none" xmlns="http://www.w3.org/2000/svg">
<path d="M61.9976 141.744V117.38H68.5913V126.588H77.633V117.38H84.2476V141.744H77.633V131.744H68.5913V141.744H61.9976Z" fill="#DFF6FF"/>
<path d="M96.5045 142.192C94.5253 142.192 92.7961 141.823 91.317 141.088C89.8378 140.346 88.6868 139.281 87.8691 137.89C87.0487 136.502 86.6399 134.864 86.6399 132.974C86.6399 131.065 87.0409 129.422 87.8482 128.047C88.6607 126.666 89.8066 125.606 91.2857 124.869C92.7649 124.135 94.5045 123.765 96.5045 123.765C98.4836 123.765 100.213 124.135 101.692 124.869C103.171 125.606 104.312 126.666 105.119 128.047C105.924 129.422 106.327 131.065 106.327 132.974C106.327 134.885 105.924 136.531 105.119 137.911C104.312 139.286 103.174 140.346 101.702 141.088C100.236 141.823 98.5045 142.192 96.5045 142.192ZM96.5045 137.307C97.6633 137.307 98.6112 136.906 99.3482 136.099C100.09 135.294 100.463 134.252 100.463 132.974C100.463 131.703 100.09 130.666 99.3482 129.859C98.6112 129.047 97.6633 128.64 96.5045 128.64C95.317 128.64 94.3534 129.047 93.6191 129.859C92.8821 130.666 92.5149 131.703 92.5149 132.974C92.5149 134.252 92.8821 135.294 93.6191 136.099C94.3534 136.906 95.317 137.307 96.5045 137.307Z" fill="#DFF6FF"/>
<path d="M108.478 141.744V124.203H114.311V126.932H114.655C115.043 125.953 115.587 125.198 116.291 124.661C116.999 124.127 117.832 123.859 118.791 123.859C119.15 123.859 119.512 123.895 119.874 123.963C120.241 124.033 120.572 124.148 120.863 124.307V129.557C119.793 129.057 118.772 128.807 117.801 128.807C116.751 128.807 115.916 129.187 115.291 129.942C114.666 130.692 114.353 131.682 114.353 132.911V141.744H108.478Z" fill="#DFF6FF"/>
<path d="M125.889 122.119C124.931 122.119 124.139 121.823 123.514 121.224C122.889 120.619 122.577 119.849 122.577 118.911C122.577 117.981 122.889 117.213 123.514 116.609C124.139 116.005 124.931 115.703 125.889 115.703C126.861 115.703 127.66 116.005 128.285 116.609C128.915 117.213 129.233 117.981 129.233 118.911C129.233 119.849 128.915 120.619 128.285 121.224C127.66 121.823 126.861 122.119 125.889 122.119ZM122.952 141.744V124.203H128.816V141.744H122.952Z" fill="#DFF6FF"/>
<path d="M131.172 141.744V138.672L139.463 129.182V128.849H131.515V124.203H147.276V127.276L139.505 136.765V137.067H147.62V141.744H131.172Z" fill="#DFF6FF"/>
<path d="M158.919 142.192C156.94 142.192 155.21 141.823 153.731 141.088C152.252 140.346 151.101 139.281 150.283 137.89C149.463 136.502 149.054 134.864 149.054 132.974C149.054 131.065 149.455 129.422 150.263 128.047C151.075 126.666 152.221 125.606 153.7 124.869C155.179 124.135 156.919 123.765 158.919 123.765C160.898 123.765 162.627 124.135 164.106 124.869C165.585 125.606 166.726 126.666 167.533 128.047C168.338 129.422 168.742 131.065 168.742 132.974C168.742 134.885 168.338 136.531 167.533 137.911C166.726 139.286 165.588 140.346 164.117 141.088C162.651 141.823 160.919 142.192 158.919 142.192ZM158.919 137.307C160.078 137.307 161.026 136.906 161.763 136.099C162.505 135.294 162.877 134.252 162.877 132.974C162.877 131.703 162.505 130.666 161.763 129.859C161.026 129.047 160.078 128.64 158.919 128.64C157.731 128.64 156.768 129.047 156.033 129.859C155.296 130.666 154.929 131.703 154.929 132.974C154.929 134.252 155.296 135.294 156.033 136.099C156.768 136.906 157.731 137.307 158.919 137.307Z" fill="#DFF6FF"/>
<path d="M170.892 141.744V124.203H176.767V127.067H177.038C177.718 125.958 178.478 125.13 179.319 124.588C180.166 124.041 181.155 123.765 182.288 123.765C183.517 123.765 184.593 124.073 185.517 124.682C186.439 125.294 187.163 126.135 187.684 127.203C188.205 128.273 188.465 129.502 188.465 130.89V141.744H182.601V132.057C182.601 131.052 182.343 130.231 181.83 129.599C181.314 128.961 180.627 128.64 179.767 128.64C178.926 128.64 178.215 128.953 177.632 129.578C177.054 130.203 176.767 131.005 176.767 131.984V141.744H170.892Z" fill="#DFF6FF"/>
<mask id="mask0_13_10" style="mask-type:luminance" maskUnits="userSpaceOnUse" x="88" y="24" width="74" height="85">
<path d="M88.6665 24.3334H162V108.333H88.6665V24.3334Z" fill="white"/>
</mask>
<g mask="url(#mask0_13_10)">
<mask id="mask1_13_10" style="mask-type:luminance" maskUnits="userSpaceOnUse" x="70" y="14" width="110" height="105">
<path d="M70.8933 55.599L143.529 14.4115L179.289 77.4792L106.654 118.664L70.8933 55.599Z" fill="white"/>
</mask>
<g mask="url(#mask1_13_10)">
<mask id="mask2_13_10" style="mask-type:luminance" maskUnits="userSpaceOnUse" x="70" y="14" width="110" height="105">
<path d="M70.8933 55.599L143.529 14.4115L179.289 77.4792L106.654 118.664L70.8933 55.599Z" fill="white"/>
</mask>
<g mask="url(#mask2_13_10)">
<path d="M111.854 88.8021C111.56 88.9688 111.385 88.9922 111.253 89.0677C108.409 90.6797 105.49 92.336 102.677 94.0703C102.346 94.2917 101.984 94.4037 101.586 94.3985C101.187 94.3959 100.825 94.2787 100.5 94.0521C96.9192 91.9063 93.3411 89.7969 89.7604 87.7266C89.4036 87.5521 89.1276 87.2891 88.9323 86.9453C88.7369 86.599 88.6536 86.2266 88.6849 85.8307C88.8047 72.7865 88.9166 59.7292 89.0208 46.6589C89.0078 46.237 89.1067 45.8464 89.3203 45.4844C89.5338 45.1198 89.8255 44.8438 90.2005 44.6511C94.7031 42.0964 99.1953 39.5495 103.698 36.9974L124.437 25.237C124.698 25.0651 124.982 24.9792 125.292 24.9792C125.604 24.9766 125.888 25.0625 126.148 25.2292C129.904 27.4349 133.656 29.6302 137.422 31.8542C137.893 32.2031 138.159 32.6719 138.216 33.2552C138.25 36.5834 138.216 39.8828 138.138 43.2344C138.13 43.4896 138.169 43.7552 138.203 44.1875L139.036 43.7136L147.518 38.7917C147.789 38.612 148.089 38.5235 148.414 38.5235C148.74 38.5235 149.039 38.612 149.31 38.7917C153.044 40.9584 156.747 43.1328 160.424 45.3151C160.727 45.4766 160.961 45.7031 161.128 46C161.297 46.2969 161.372 46.6146 161.354 46.9557L160.969 85.5313C160.961 85.7526 160.969 85.9714 160.992 86.1927C161.029 86.4193 161.026 86.6459 160.984 86.8724C160.943 87.0964 160.862 87.3099 160.747 87.5078C160.63 87.7057 160.484 87.8802 160.307 88.0261C160.133 88.1745 159.937 88.2865 159.721 88.3672C156.133 90.3255 152.586 92.3516 149.057 94.4141C148.898 94.5261 148.724 94.612 148.539 94.6693C148.352 94.7292 148.161 94.7578 147.966 94.7552C147.771 94.7552 147.581 94.7214 147.396 94.6615C147.208 94.599 147.036 94.5104 146.88 94.3959C144.099 92.7162 141.315 91.0755 138.526 89.4245C138.318 89.3047 138.094 89.1953 137.708 89C137.711 90.1745 137.721 91.2344 137.698 92.2995C137.693 94.8073 137.669 97.3255 137.656 99.7761C137.68 100.115 137.604 100.43 137.43 100.721C137.255 101.013 137.013 101.229 136.703 101.367C133.008 103.464 129.302 105.565 125.604 107.661C125.315 107.862 124.992 107.961 124.641 107.961C124.289 107.961 123.969 107.862 123.677 107.664C119.984 105.461 116.219 103.352 112.599 101.096C112.099 100.732 111.82 100.242 111.766 99.625C111.734 96.2995 111.766 93 111.849 89.6563C111.917 89.4193 111.883 89.1875 111.854 88.8021Z" fill="#256D85"/>
</g>
</g>
</g>
<mask id="mask3_13_10" style="mask-type:luminance" maskUnits="userSpaceOnUse" x="92" y="27" width="66" height="38">
<path d="M92.6665 27.6666H157.333V65H92.6665V27.6666Z" fill="white"/>
</mask>
<g mask="url(#mask3_13_10)">
<mask id="mask4_13_10" style="mask-type:luminance" maskUnits="userSpaceOnUse" x="70" y="14" width="110" height="105">
<path d="M70.8933 55.5989L143.529 14.4114L179.289 77.4791L106.654 118.664L70.8933 55.5989Z" fill="white"/>
</mask>
<g mask="url(#mask4_13_10)">
<mask id="mask5_13_10" style="mask-type:luminance" maskUnits="userSpaceOnUse" x="70" y="14" width="110" height="105">
<path d="M70.8933 55.5989L143.529 14.4114L179.289 77.4791L106.654 118.664L70.8933 55.5989Z" fill="white"/>
</mask>
<g mask="url(#mask5_13_10)">
<path d="M93.0938 46.1275C93.3932 46.3462 93.6068 46.552 93.849 46.69C96.3099 48.1379 98.7813 49.5546 101.229 51.0233C101.445 51.177 101.685 51.2551 101.948 51.2551C102.214 51.2525 102.453 51.177 102.669 51.0207C106.005 49.1275 109.305 47.2577 112.651 45.2967C112.932 45.1014 113.245 45.0077 113.589 45.0129C113.93 45.0207 114.237 45.1275 114.513 45.3332C114.771 45.4999 115.031 45.6509 115.294 45.8046C118.732 47.8254 122.18 49.841 125.609 51.8671C125.857 51.9686 126.057 52.1327 126.208 52.354C126.359 52.5754 126.44 52.8202 126.445 53.0884C126.451 53.3566 126.383 53.604 126.24 53.8332C126.096 54.0598 125.904 54.2316 125.659 54.3436C122.815 55.9556 119.875 57.5494 116.977 59.1535C116.711 59.3046 116.445 59.4556 116.128 59.7108C116.385 59.9035 116.503 59.9999 116.638 60.0858C119.193 61.5806 121.771 63.0624 124.307 64.5936C124.521 64.7447 124.758 64.8202 125.021 64.8202C125.281 64.8176 125.518 64.7421 125.732 64.5858L156.633 47.065C156.813 46.9634 156.992 46.8619 157.229 46.7264C157.146 46.6327 157.055 46.5467 156.956 46.4686C154.258 44.8905 151.539 43.2759 148.836 41.7525C148.508 41.591 148.185 41.591 147.859 41.7551C144.57 43.6197 141.281 45.4869 138.018 47.3983C137.833 47.5259 137.633 47.6249 137.419 47.6926C137.203 47.7577 136.984 47.7915 136.758 47.7889C136.534 47.7889 136.315 47.7525 136.102 47.6848C135.885 47.6145 135.688 47.5129 135.505 47.3827C131.992 45.2785 128.445 43.2186 124.906 41.1535C124.617 41.0363 124.38 40.8514 124.195 40.6014C124.01 40.3514 123.904 40.0702 123.878 39.7577C123.87 39.0363 124.38 38.6978 124.93 38.3853L133.487 33.5962L134.177 33.203C134.057 33.0494 133.919 32.9087 133.766 32.7863C131.039 31.2264 128.401 29.6639 125.729 28.1353C125.398 28.0129 125.076 28.0337 124.763 28.1952C114.424 34.0572 104.065 39.9061 93.6875 45.7421C93.5156 45.8384 93.3672 45.9478 93.0938 46.1275Z" fill="#DFF6FF"/>
</g>
</g>
</g>
<mask id="mask6_13_10" style="mask-type:luminance" maskUnits="userSpaceOnUse" x="91" y="48" width="33" height="57">
<path d="M91.3333 48.3334H124V105H91.3333V48.3334Z" fill="white"/>
</mask>
<g mask="url(#mask6_13_10)">
<mask id="mask7_13_10" style="mask-type:luminance" maskUnits="userSpaceOnUse" x="70" y="14" width="110" height="105">
<path d="M70.8933 55.599L143.529 14.4115L179.289 77.4792L106.654 118.664L70.8933 55.599Z" fill="white"/>
</mask>
<g mask="url(#mask7_13_10)">
<mask id="mask8_13_10" style="mask-type:luminance" maskUnits="userSpaceOnUse" x="70" y="14" width="110" height="105">
<path d="M70.8933 55.599L143.529 14.4115L179.289 77.4792L106.654 118.664L70.8933 55.599Z" fill="white"/>
</mask>
<g mask="url(#mask8_13_10)">
<path d="M100.253 90.8334C100.284 90.4662 100.315 90.2605 100.31 90.0496C100.331 86.698 100.344 83.349 100.351 80.0053C100.359 78.586 101.372 77.961 102.575 78.6694C106.294 80.8074 109.922 83.0105 113.607 85.1537C113.935 85.3152 114.193 85.5574 114.372 85.8777C114.555 86.198 114.63 86.5417 114.599 86.9089C114.505 90.7188 114.518 94.6069 114.461 98.461C114.445 98.6798 114.492 98.8855 114.601 99.0756C114.708 99.2683 114.862 99.4141 115.057 99.5131C117.031 100.649 118.997 101.789 120.956 102.932C121.726 103.385 122.497 103.862 123.365 104.399C123.388 103.997 123.404 103.76 123.406 103.521C123.495 91.6303 123.578 79.7449 123.659 67.8673C123.625 67.4975 123.458 67.2032 123.159 66.9871C121.117 65.7501 119.055 64.5652 117 63.349C116.297 62.948 115.599 62.5157 114.844 62.0678C114.797 62.2944 114.763 62.5261 114.75 62.7605C114.729 66.1121 114.719 69.4584 114.716 72.7996C114.758 73.0938 114.716 73.3777 114.591 73.6485C114.463 73.9194 114.276 74.1355 114.023 74.2944C113.763 74.435 113.484 74.4923 113.19 74.4636C112.896 74.435 112.633 74.3256 112.406 74.1355C108.82 72.0339 105.255 69.8959 101.654 67.8308C101.461 67.7397 101.286 67.6199 101.13 67.474C100.974 67.3308 100.844 67.1641 100.737 66.9792C100.633 66.7917 100.557 66.5964 100.513 66.3855C100.469 66.1772 100.456 65.9662 100.476 65.7553C100.552 61.9558 100.568 58.1876 100.633 54.3907C100.659 54.172 100.617 53.9662 100.51 53.7735C100.401 53.5808 100.245 53.4402 100.042 53.349C98.5755 52.5287 97.1197 51.6615 95.6666 50.8204L91.7031 48.4714C91.7109 49.3048 91.7317 49.9584 91.7265 50.6121C91.5911 62.0522 91.4739 73.5105 91.3749 84.9819C91.3411 85.185 91.3723 85.3751 91.4739 85.5522C91.5754 85.7319 91.7213 85.8569 91.9114 85.9298C94.0546 87.1459 96.1692 88.4011 98.2942 89.6537C98.8958 89.9871 99.5234 90.3829 100.253 90.8334Z" fill="#DFF6FF"/>
</g>
</g>
</g>
<mask id="mask9_13_10" style="mask-type:luminance" maskUnits="userSpaceOnUse" x="126" y="49" width="33" height="56">
<path d="M126 49H158.667V105H126V49Z" fill="white"/>
</mask>
<g mask="url(#mask9_13_10)">
<mask id="mask10_13_10" style="mask-type:luminance" maskUnits="userSpaceOnUse" x="70" y="14" width="110" height="105">
<path d="M70.8933 55.599L143.529 14.4115L179.289 77.4792L106.654 118.664L70.8933 55.599Z" fill="white"/>
</mask>
<g mask="url(#mask10_13_10)">
<mask id="mask11_13_10" style="mask-type:luminance" maskUnits="userSpaceOnUse" x="70" y="14" width="110" height="105">
<path d="M70.8933 55.599L143.529 14.4115L179.289 77.4792L106.654 118.664L70.8933 55.599Z" fill="white"/>
</mask>
<g mask="url(#mask11_13_10)">
<path d="M158.601 49.0156C158.31 49.1823 158.127 49.2865 157.94 49.3932C155.445 50.8073 152.963 52.2135 150.469 53.6276C150.18 53.7578 149.956 53.9635 149.802 54.2396C149.646 54.5182 149.588 54.8151 149.63 55.1302C149.633 58.888 149.596 62.6667 149.578 66.4349C149.601 66.776 149.528 67.0964 149.359 67.3932C149.193 67.6901 148.956 67.9193 148.653 68.0755C144.927 70.1875 141.211 72.2943 137.487 74.4062C136.234 75.1146 135.187 74.4583 135.229 73.0547L135.338 62.974C135.336 62.7552 135.32 62.5365 135.294 62.3203C135.19 62.3359 135.088 62.3646 134.992 62.4062C132.252 63.9583 129.521 65.5078 126.792 67.0547C126.479 67.3177 126.323 67.651 126.323 68.0599C126.187 79.7943 126.086 91.5599 126.018 103.357C126.036 103.685 126.07 104.01 126.122 104.336C126.333 104.219 126.458 104.221 126.555 104.167C129.219 102.656 131.872 101.151 134.497 99.5755C134.812 99.3151 134.979 98.9792 134.992 98.5677C135.057 94.7734 135.083 91 135.101 87.2318C135.065 86.8698 135.13 86.5286 135.297 86.2057C135.463 85.8828 135.706 85.6354 136.023 85.4557C139.815 83.3073 143.521 81.2057 147.276 79.0781C148.469 78.401 149.476 78.9818 149.458 80.3438C149.435 83.7031 149.38 87.0521 149.362 90.4219C149.354 90.651 149.385 90.8828 149.398 91.2396C149.703 91.0677 149.914 91.0208 150.094 90.9193C152.682 89.4531 155.271 87.9844 157.82 86.4505C158.14 86.2057 158.315 85.8802 158.346 85.4766C158.396 83.1562 158.375 80.8255 158.396 78.4974C158.482 69.0781 158.57 59.6589 158.656 50.2396L158.601 49.0156Z" fill="#DFF6FF"/>
</g>
</g>
</g>
<mask id="mask12_13_10" style="mask-type:luminance" maskUnits="userSpaceOnUse" x="102" y="48" width="11" height="17">
<path d="M102.667 48.3334H112.667V64.3334H102.667V48.3334Z" fill="white"/>
</mask>
<g mask="url(#mask12_13_10)">
<mask id="mask13_13_10" style="mask-type:luminance" maskUnits="userSpaceOnUse" x="70" y="14" width="110" height="105">
<path d="M70.8933 55.599L143.529 14.4115L179.289 77.4792L106.654 118.664L70.8933 55.599Z" fill="white"/>
</mask>
<g mask="url(#mask13_13_10)">
<mask id="mask14_13_10" style="mask-type:luminance" maskUnits="userSpaceOnUse" x="70" y="14" width="110" height="105">
<path d="M70.8933 55.599L143.529 14.4115L179.289 77.4792L106.654 118.664L70.8933 55.599Z" fill="white"/>
</mask>
<g mask="url(#mask14_13_10)">
<path d="M103.229 64.0053C103.393 63.9584 103.549 63.8985 103.703 63.8256C106.367 62.3152 109.021 60.81 111.643 59.2475C111.956 58.9845 112.117 58.6485 112.122 58.2371C112.187 55.2813 112.213 52.323 112.255 49.3933C112.255 49.1928 112.2 48.9871 112.169 48.6902C109.24 50.3516 106.424 51.948 103.638 53.5261C103.411 53.6563 103.289 54.1251 103.281 54.4428C103.229 57.3803 103.198 60.3048 103.185 63.2657C103.182 63.5131 103.198 63.7605 103.229 64.0053Z" fill="#DFF6FF"/>
</g>
</g>
</g>
<mask id="mask15_13_10" style="mask-type:luminance" maskUnits="userSpaceOnUse" x="104" y="61" width="9" height="10">
<path d="M104 61.6666H112.667V71H104V61.6666Z" fill="white"/>
</mask>
<g mask="url(#mask15_13_10)">
<mask id="mask16_13_10" style="mask-type:luminance" maskUnits="userSpaceOnUse" x="70" y="14" width="110" height="105">
<path d="M70.8933 55.5989L143.529 14.4114L179.289 77.4791L106.654 118.664L70.8933 55.5989Z" fill="white"/>
</mask>
<g mask="url(#mask16_13_10)">
<mask id="mask17_13_10" style="mask-type:luminance" maskUnits="userSpaceOnUse" x="70" y="14" width="110" height="105">
<path d="M70.8933 55.5989L143.529 14.4114L179.289 77.4791L106.654 118.664L70.8933 55.5989Z" fill="white"/>
</mask>
<g mask="url(#mask17_13_10)">
<path d="M112.109 62.0155L104.45 66.3566L112.005 70.8436L112.109 62.0155Z" fill="#DFF6FF"/>
</g>
</g>
</g>
<mask id="mask18_13_10" style="mask-type:luminance" maskUnits="userSpaceOnUse" x="102" y="81" width="9" height="10">
<path d="M102.667 81.6666H110.667V91H102.667V81.6666Z" fill="white"/>
</mask>
<g mask="url(#mask18_13_10)">
<mask id="mask19_13_10" style="mask-type:luminance" maskUnits="userSpaceOnUse" x="70" y="14" width="110" height="105">
<path d="M70.8933 55.5989L143.529 14.4114L179.289 77.4791L106.654 118.664L70.8933 55.5989Z" fill="white"/>
</mask>
<g mask="url(#mask19_13_10)">
<mask id="mask20_13_10" style="mask-type:luminance" maskUnits="userSpaceOnUse" x="70" y="14" width="110" height="105">
<path d="M70.8933 55.5989L143.529 14.4114L179.289 77.4791L106.654 118.664L70.8933 55.5989Z" fill="white"/>
</mask>
<g mask="url(#mask20_13_10)">
<path d="M102.943 90.8254L110.581 86.4921L103.029 82.0077C102.966 85.0129 102.963 87.8566 102.943 90.8254Z" fill="#DFF6FF"/>
</g>
</g>
</g>
<mask id="mask21_13_10" style="mask-type:luminance" maskUnits="userSpaceOnUse" x="137" y="61" width="10" height="10">
<path d="M137.333 61.6666H146V71H137.333V61.6666Z" fill="white"/>
</mask>
<g mask="url(#mask21_13_10)">
<mask id="mask22_13_10" style="mask-type:luminance" maskUnits="userSpaceOnUse" x="70" y="14" width="110" height="105">
<path d="M70.8933 55.5989L143.529 14.4114L179.289 77.4791L106.654 118.664L70.8933 55.5989Z" fill="white"/>
</mask>
<g mask="url(#mask22_13_10)">
<mask id="mask23_13_10" style="mask-type:luminance" maskUnits="userSpaceOnUse" x="70" y="14" width="110" height="105">
<path d="M70.8933 55.5989L143.529 14.4114L179.289 77.4791L106.654 118.664L70.8933 55.5989Z" fill="white"/>
</mask>
<g mask="url(#mask23_13_10)">
<path d="M145.55 66.6901C142.987 65.1744 140.547 63.7395 137.998 62.2057L137.966 70.9895L145.55 66.6901Z" fill="#DFF6FF"/>
</g>
</g>
</g>
<mask id="mask24_13_10" style="mask-type:luminance" maskUnits="userSpaceOnUse" x="114" y="48" width="9" height="10">
<path d="M114.667 48.3334H122.667V57.6667H114.667V48.3334Z" fill="white"/>
</mask>
<g mask="url(#mask24_13_10)">
<mask id="mask25_13_10" style="mask-type:luminance" maskUnits="userSpaceOnUse" x="70" y="14" width="110" height="105">
<path d="M70.8933 55.599L143.529 14.4115L179.289 77.4792L106.654 118.664L70.8933 55.599Z" fill="white"/>
</mask>
<g mask="url(#mask25_13_10)">
<mask id="mask26_13_10" style="mask-type:luminance" maskUnits="userSpaceOnUse" x="70" y="14" width="110" height="105">
<path d="M70.8933 55.599L143.529 14.4115L179.289 77.4792L106.654 118.664L70.8933 55.599Z" fill="white"/>
</mask>
<g mask="url(#mask26_13_10)">
<path d="M114.823 48.6641L114.794 57.4479L122.443 53.112C119.891 51.6146 117.458 50.1745 114.823 48.6641Z" fill="#DFF6FF"/>
</g>
</g>
</g>
<mask id="mask27_13_10" style="mask-type:luminance" maskUnits="userSpaceOnUse" x="138" y="82" width="10" height="10">
<path d="M138.667 82.3334H147.333V91.6667H138.667V82.3334Z" fill="white"/>
</mask>
<g mask="url(#mask27_13_10)">
<mask id="mask28_13_10" style="mask-type:luminance" maskUnits="userSpaceOnUse" x="70" y="14" width="110" height="105">
<path d="M70.8933 55.599L143.529 14.4115L179.289 77.4792L106.654 118.664L70.8933 55.599Z" fill="white"/>
</mask>
<g mask="url(#mask28_13_10)">
<mask id="mask29_13_10" style="mask-type:luminance" maskUnits="userSpaceOnUse" x="70" y="14" width="110" height="105">
<path d="M70.8933 55.599L143.529 14.4115L179.289 77.4792L106.654 118.664L70.8933 55.599Z" fill="white"/>
</mask>
<g mask="url(#mask29_13_10)">
<path d="M146.667 91.172C146.693 88.2136 146.721 85.3673 146.698 82.3855L139.115 86.6876C141.672 88.2162 144.104 89.6563 146.667 91.172Z" fill="#DFF6FF"/>
</g>
</g>
</g>
<mask id="mask30_13_10" style="mask-type:luminance" maskUnits="userSpaceOnUse" x="139" y="55" width="9" height="10">
<path d="M139.333 55H147.333V65H139.333V55Z" fill="white"/>
</mask>
<g mask="url(#mask30_13_10)">
<mask id="mask31_13_10" style="mask-type:luminance" maskUnits="userSpaceOnUse" x="70" y="14" width="110" height="105">
<path d="M70.8933 55.599L143.529 14.4115L179.289 77.4792L106.654 118.664L70.8933 55.599Z" fill="white"/>
</mask>
<g mask="url(#mask31_13_10)">
<mask id="mask32_13_10" style="mask-type:luminance" maskUnits="userSpaceOnUse" x="70" y="14" width="110" height="105">
<path d="M70.8933 55.599L143.529 14.4115L179.289 77.4792L106.654 118.664L70.8933 55.599Z" fill="white"/>
</mask>
<g mask="url(#mask32_13_10)">
<path d="M146.961 55.6562L139.378 59.9557L146.888 64.3646L146.961 55.6562Z" fill="#DFF6FF"/>
</g>
</g>
</g>
<mask id="mask33_13_10" style="mask-type:luminance" maskUnits="userSpaceOnUse" x="127" y="35" width="10" height="10">
<path d="M127.333 35H136V44.3333H127.333V35Z" fill="white"/>
</mask>
<g mask="url(#mask33_13_10)">
<mask id="mask34_13_10" style="mask-type:luminance" maskUnits="userSpaceOnUse" x="70" y="14" width="110" height="105">
<path d="M70.8933 55.599L143.529 14.4115L179.289 77.4792L106.654 118.664L70.8933 55.599Z" fill="white"/>
</mask>
<g mask="url(#mask34_13_10)">
<mask id="mask35_13_10" style="mask-type:luminance" maskUnits="userSpaceOnUse" x="70" y="14" width="110" height="105">
<path d="M70.8933 55.599L143.529 14.4115L179.289 77.4792L106.654 118.664L70.8933 55.599Z" fill="white"/>
</mask>
<g mask="url(#mask35_13_10)">
<path d="M135.513 35.5156L127.932 39.8151C130.464 41.2969 132.87 42.7135 135.432 44.2057L135.513 35.5156Z" fill="#DFF6FF"/>
</g>
</g>
</g>
</svg>
